<?xml version="1.0" encoding="UTF-8"?>
<!-- Generator: visioncortex VTracer 0.6.4 -->
<svg version="1.1" xmlns="http://www.w3.org/2000/svg" width="1000" height="1000">
<path d="M0 0 C330 0 660 0 1000 0 C1000 330 1000 660 1000 1000 C670 1000 340 1000 0 1000 C0 670 0 340 0 0 Z " fill="#14161E" transform="translate(0,0)"/>
<path d="M0 0 C15.41314288 9.5170672 31.47732996 11.39809986 49.16088867 7.54663086 C59.1083254 5.00940194 68.38633922 -0.74934522 76.91870117 -6.30493164 C83.8909042 -10.14190701 89.66385689 -11.13005984 97.51245117 -11.00415039 C98.44081787 -10.99254883 99.36918457 -10.98094727 100.32568359 -10.96899414 C122.07574212 -10.45388609 141.02177716 0.34291168 156.57495117 15.12084961 C172.86214604 32.2624547 184.79082954 55.74098815 187.32495117 79.37084961 C187.43452148 80.29639648 187.5440918 81.22194336 187.65698242 82.17553711 C189.80345001 103.29677822 187.57260552 123.87851248 182.32495117 144.37084961 C182.13529785 145.11286621 181.94564453 145.85488281 181.75024414 146.61938477 C179.25343745 156.17138835 176.03420525 164.65449245 171.32495117 173.37084961 C170.40659714 175.30755038 169.48996435 177.24506818 168.57495117 179.18334961 C162.70219338 190.89819806 154.91473714 201.5127731 146.32495117 211.37084961 C145.49479492 212.33506836 144.66463867 213.29928711 143.80932617 214.29272461 C120.89755105 240.40544071 89.72560683 258.01505891 55.32495117 263.37084961 C54.24592529 263.54140869 53.16689941 263.71196777 52.05517578 263.88769531 C26.49761599 267.19801738 1.26941213 263.44290301 -22.67504883 254.37084961 C-24.52549805 253.67668945 -24.52549805 253.67668945 -26.41333008 252.96850586 C-35.23213247 249.42725151 -42.89629032 244.74620433 -50.67504883 239.37084961 C-51.63282227 238.72116211 -52.5905957 238.07147461 -53.57739258 237.40209961 C-76.3311788 221.47118473 -93.0152768 199.84058828 -105.67504883 175.37084961 C-106.25125977 174.27256836 -106.8274707 173.17428711 -107.42114258 172.04272461 C-123.91845669 138.61959471 -128.75183841 94.04299906 -117.38354492 58.40551758 C-108.2759497 32.2502114 -91.89610301 11.03630858 -67.67504883 -2.62915039 C-66.7959082 -3.12543945 -65.91676758 -3.62172852 -65.01098633 -4.13305664 C-42.40006026 -16.15632685 -20.87110569 -13.01494143 0 0 Z " fill="#55419F" transform="translate(301.675048828125,403.629150390625)"/>
<path d="M0 0 C10.02666759 -0.33215915 19.24664922 -0.27593043 28.82617188 3.07373047 C30.01597656 3.47591797 31.20578125 3.87810547 32.43164062 4.29248047 C54.07489681 12.03986126 69.59015293 27.76416908 79.82617188 48.07373047 C81.4381464 51.6851274 82.74152564 55.27176 83.82617188 59.07373047 C84.16261719 60.23775391 84.16261719 60.23775391 84.50585938 61.42529297 C89.16991517 81.55101319 86.30779419 105.47024479 75.72070312 123.27685547 C72.6751101 127.77302991 69.35474251 131.95079505 65.82617188 136.07373047 C65.39691406 136.63576172 64.96765625 137.19779297 64.52539062 137.77685547 C54.32691128 151.09445736 34.62193621 160.52327463 18.45117188 163.38623047 C-5.08971893 166.32530927 -27.20403029 161.6145741 -46.17382812 147.07373047 C-61.78933715 134.50404126 -74.36637685 116.3076135 -77.17382812 96.07373047 C-79.25132804 69.96965816 -75.41874039 48.31053112 -58.17382812 28.07373047 C-57.75230469 27.49751953 -57.33078125 26.92130859 -56.89648438 26.32763672 C-46.63896665 12.82762099 -27.55210693 3.48851861 -11.20898438 0.53857422 C-7.47118674 0.16636716 -3.75121611 0.12723127 0 0 Z " fill="#15171F" transform="translate(330.173828125,449.92626953125)"/>
<path d="M0 0 C2.72992093 2.16102832 5.30545768 4.4035685 7.85546875 6.7734375 C8.72816406 7.5778125 9.60085938 8.3821875 10.5 9.2109375 C29.55041449 27.49019579 39.40792438 52.00826033 40.29296875 78.2109375 C40.48626031 104.80966815 28.72127222 129.04247333 10.66796875 147.953125 C-8.20317572 166.87668931 -31.88413124 174.82930815 -58.14453125 175.0859375 C-66.86866286 175.05396634 -74.80613192 174.52510928 -83.14453125 171.7734375 C-83.7890625 171.58007812 -84.43359375 171.38671875 -85.09765625 171.1875 C-110.77063212 163.48560724 -130.36077343 146.27461297 -143.14453125 122.7734375 C-145.14566746 118.52646093 -146.70549518 114.24024409 -148.14453125 109.7734375 C-148.37301758 109.09071777 -148.60150391 108.40799805 -148.83691406 107.70458984 C-156.78578083 83.46538652 -154.1528737 58.39796837 -143.546875 35.29296875 C-139.83360489 28.07789037 -135.43703699 21.89997624 -130.14453125 15.7734375 C-129.56445312 15.03738281 -128.984375 14.30132812 -128.38671875 13.54296875 C-118.46465565 1.40884396 -104.60774734 -6.66007444 -90.14453125 -12.2265625 C-89.44473145 -12.49758789 -88.74493164 -12.76861328 -88.02392578 -13.04785156 C-58.69072976 -23.81616014 -25.14076618 -17.8015363 0 0 Z M-115.14453125 19.7734375 C-133.11476037 38.66724667 -139.12850176 59.97862097 -138.62109375 85.52734375 C-138.18151177 94.95871022 -136.00115839 103.19440978 -132.14453125 111.7734375 C-131.86657715 112.39621582 -131.58862305 113.01899414 -131.30224609 113.66064453 C-124.95681153 127.39607552 -114.93810065 139.17907414 -102.20703125 147.3359375 C-101.47194336 147.80700928 -100.73685547 148.27808105 -99.97949219 148.76342773 C-81.13389888 160.44825958 -59.03062862 163.78710258 -37.3359375 158.9453125 C-25.69425226 155.94564842 -14.4900524 150.28969966 -5.14453125 142.7734375 C-4.561875 142.35191406 -3.97921875 141.93039062 -3.37890625 141.49609375 C12.99319006 128.91100102 22.09751893 108.74361096 24.85546875 88.7734375 C26.92763114 65.38703659 21.77153766 44.09358852 6.85546875 25.7734375 C6.39914062 25.1546875 5.9428125 24.5359375 5.47265625 23.8984375 C-5.36823633 9.87668423 -24.09017139 0.88161324 -40.98828125 -2.85546875 C-45.09587812 -3.3384164 -49.1372447 -3.37584828 -53.26953125 -3.3515625 C-54.53204712 -3.34539917 -54.53204712 -3.34539917 -55.82006836 -3.33911133 C-78.88358845 -3.13352258 -98.1757462 3.79381512 -115.14453125 19.7734375 Z " fill="#C3A3F2" transform="translate(391.14453125,453.2265625)"/>
<path d="M0 0 C1.50381477 -0.00788544 1.50381477 -0.00788544 3.03800964 -0.01593018 C6.33808162 -0.02908806 9.6376676 -0.0204061 12.93774414 -0.01025391 C15.24028109 -0.012276 17.54281741 -0.01518857 19.84535217 -0.01895142 C24.66616933 -0.02336921 29.48681948 -0.01696166 34.30761719 -0.00292969 C40.47564223 0.01415203 46.64327533 0.00432369 52.81128597 -0.01364708 C57.56489494 -0.02450771 62.31841159 -0.02102791 67.07202339 -0.0132637 C69.34572967 -0.01126751 71.61944442 -0.01370049 73.89314079 -0.02070236 C77.07612047 -0.02835312 80.25847306 -0.01666098 83.44140625 0 C84.84048218 -0.00910904 84.84048218 -0.00910904 86.26782227 -0.0184021 C94.41217528 0.06025157 101.11558442 1.92570141 107.17602539 7.61083984 C112.88782898 13.91877827 114.63323742 19.72679607 114.26586914 28.23583984 C113.15680691 35.51237006 109.34816011 40.44615447 103.82446289 45.09912109 C97.30773173 49.21889366 91.98968037 49.83145262 84.41894531 49.80810547 C83.40010757 49.81657501 82.38126984 49.82504456 81.33155823 49.83377075 C77.97620019 49.85709662 74.621302 49.85816382 71.26586914 49.85693359 C68.92328205 49.86403848 66.58069669 49.87173796 64.2381134 49.88000488 C59.33154462 49.8934401 54.4251367 49.895023 49.51855469 49.88916016 C43.24742146 49.88326919 36.97706378 49.91383623 30.70608044 49.95427704 C25.86831034 49.98019605 21.03072584 49.98302752 16.19289589 49.97938538 C13.88174811 49.98107309 11.57059143 49.99068176 9.25951195 50.00852966 C6.01916833 50.03079856 2.78037982 50.02097561 -0.45996094 50.00341797 C-1.40418915 50.01668121 -2.34841736 50.02994446 -3.32125854 50.04360962 C-10.87704938 49.9490385 -17.49222596 47.82899636 -23.1310854 42.61666107 C-24.6511517 40.95172185 -25.94266678 39.24780816 -27.21459961 37.38818359 C-27.83334961 36.52193359 -28.45209961 35.65568359 -29.08959961 34.76318359 C-31.14325694 28.60221162 -31.66005975 21.84293585 -29.11303711 15.75537109 C-21.98741418 4.51441513 -13.05726575 -0.08482855 0 0 Z " fill="#55419F" transform="translate(582.214599609375,312.61181640625)"/>
<path d="M0 0 C0.90406586 -0.0071553 1.80813171 -0.01431061 2.73959351 -0.02168274 C3.73951828 -0.02437164 4.73944305 -0.02706055 5.76966858 -0.02983093 C7.34050201 -0.03968773 7.34050201 -0.03968773 8.94306946 -0.04974365 C12.42831995 -0.06954232 15.9135271 -0.08115739 19.39881897 -0.09111023 C20.58796968 -0.09518576 21.7771204 -0.09926128 23.00230598 -0.10346031 C29.30317641 -0.1243548 35.60402487 -0.13863858 41.90492249 -0.147995 C48.40475979 -0.15903158 54.90425211 -0.19339033 61.40396786 -0.23316669 C66.40641906 -0.25936623 71.40878879 -0.26769011 76.41130257 -0.27127647 C78.8061867 -0.27613832 81.20106728 -0.28774074 83.59588432 -0.30631447 C86.95877323 -0.33076274 90.32077979 -0.32972937 93.68373108 -0.32279968 C95.15629112 -0.34201477 95.15629112 -0.34201477 96.65859985 -0.36161804 C104.24272649 -0.30495753 111.15394308 1.2647473 117.21131897 6.04170227 C122.83369135 13.06609118 125.52272061 18.9325424 125.29335022 28.07295227 C124.30467985 34.34781988 120.84768902 38.99519534 116.55897522 43.52217102 C108.73305963 48.14657569 101.78964358 49.73461024 92.75965881 49.60127258 C91.70481293 49.60185669 90.64996704 49.6024408 89.56315613 49.6030426 C86.11089525 49.60027793 82.65952092 49.56926184 79.20741272 49.53779602 C76.8003232 49.5303279 74.39322756 49.52463767 71.98612976 49.52064514 C65.67645739 49.50543394 59.36715822 49.46619074 53.05763245 49.42182922 C46.60891263 49.38077917 40.16013202 49.36261335 33.71131897 49.34248352 C21.07704594 49.29969236 8.44303051 49.23227368 -4.19102478 49.14717102 C-4.52102478 48.48717102 -4.85102478 47.82717102 -5.19102478 47.14717102 C-4.59934509 46.80685852 -4.00766541 46.46654602 -3.39805603 46.11592102 C3.18564844 42.07762921 6.40648735 37.95214675 9.80897522 31.14717102 C10.54853295 23.783289 10.51685184 17.43054461 6.44569397 11.08467102 C4.13467276 8.3489514 1.54340323 6.32840282 -1.42149353 4.33857727 C-3.19102478 3.14717102 -3.19102478 3.14717102 -5.19102478 1.14717102 C-3.63821523 -0.40563853 -2.16162935 0.01169485 0 0 Z " fill="#241E41" transform="translate(685.1910247802734,312.8528289794922)"/>
<path d="M0 0 C8.15431646 -0.80206391 13.3708763 1.22397428 20 6 C29.05099141 13.90210396 33.11632836 23.5378307 36 35 C36.15494629 37.48430549 36.21596849 39.97579665 36.1953125 42.46484375 C36.1924826 43.14301651 36.18965271 43.82118927 36.18673706 44.51991272 C36.17565416 46.65929766 36.1505736 48.7982443 36.125 50.9375 C36.11495476 52.39908244 36.10583163 53.86067153 36.09765625 55.32226562 C36.07575425 58.88164979 36.04130866 62.44078203 36 66 C36.36641602 65.35571045 36.73283203 64.7114209 37.11035156 64.04760742 C40.24619668 58.65893676 43.45531632 53.83205122 47.75 49.3125 C48.26731689 48.76215088 48.78463379 48.21180176 49.31762695 47.64477539 C56.11452022 40.59155287 63.75177039 35.3073139 73 32 C73.79921875 31.7009375 74.5984375 31.401875 75.421875 31.09375 C82.58164302 28.85890911 89.62491025 28.71739293 97.0625 28.6875 C98.59898193 28.67928223 98.59898193 28.67928223 100.16650391 28.67089844 C107.61428653 28.74285769 107.61428653 28.74285769 111 31 C110.70068359 32.85864258 110.70068359 32.85864258 110 35 C107.56503431 36.71514007 105.19735484 38.21059997 102.625 39.6875 C95.54391089 43.93630955 89.26382473 48.60385547 83 54 C73.15066243 62.46514753 63.65107023 70.15237057 52 76 C51.13503906 76.43957031 50.27007812 76.87914062 49.37890625 77.33203125 C38.69110789 82.4326163 23.12707183 82.77434219 11.6015625 79.921875 C-0.25734541 75.71961934 -10.89906971 68.72661818 -21.54589844 62.15991211 C-31.65077519 55.938224 -41.74194021 49.8970207 -53 46 C-53.99 45.34 -54.98 44.68 -56 44 C-55.67 42.35 -55.34 40.7 -55 39 C-42.38926716 33.36166835 -28.32031575 32.72114409 -15.375 37.625 C-1.32249754 43.42046232 11.48355382 53.64841797 19 67 C18.6358868 45.7490296 13.83184706 22.83581147 0.1875 6.015625 C-1 4 -1 4 -0.6875 1.734375 C-0.460625 1.16203125 -0.23375 0.5896875 0 0 Z " fill="#55419F" transform="translate(307,322)"/>
<path d="M0 0 C0.86653702 -0.00524185 1.73307404 -0.0104837 2.62586975 -0.0158844 C4.4539381 -0.02229218 6.28204775 -0.02098373 8.11010742 -0.01245117 C10.8977243 -0.00394419 13.68328863 -0.03271365 16.47070312 -0.06445312 C18.25130147 -0.06606547 20.03190343 -0.06548697 21.8125 -0.0625 C22.64079819 -0.07373398 23.46909637 -0.08496796 24.32249451 -0.09654236 C29.62101683 -0.03316217 32.91251175 0.70509567 36.97265625 4.43359375 C39.42961111 9.28425513 39.27929485 14.27052329 39.2734375 19.59375 C39.27772263 20.46124374 39.28200775 21.32873749 39.28642273 22.22251892 C39.29214398 24.0488091 39.29268262 25.87512206 39.28833008 27.70141602 C39.28516227 30.49079176 39.30868343 33.27911392 39.33398438 36.06835938 C39.33625686 37.84765492 39.3369611 39.6269533 39.3359375 41.40625 C39.34514725 42.23657242 39.35435699 43.06689484 39.36384583 43.92237854 C39.32680071 48.56781195 39.09576698 51.74818314 35.97265625 55.43359375 C31.17876495 59.54811563 27.53889775 60.01894808 21.50390625 59.9296875 C20.70537231 59.93114273 19.90683838 59.93259796 19.08410645 59.93409729 C17.40320165 59.93244431 15.72228077 59.92095057 14.04150391 59.90014648 C11.48013503 59.87117833 8.9208376 59.87955207 6.359375 59.89257812 C4.7200421 59.88634001 3.0807157 59.87794849 1.44140625 59.8671875 C0.30209656 59.87159096 0.30209656 59.87159096 -0.86022949 59.87608337 C-6.33474575 59.77976621 -10.29812145 58.63067004 -14.67021179 55.11105347 C-16.43057979 52.93518074 -16.40184784 51.71151044 -16.3996582 48.93383789 C-16.40588699 48.02602066 -16.41211578 47.11820343 -16.41853333 46.18287659 C-16.4047187 44.71563393 -16.4047187 44.71563393 -16.390625 43.21875 C-16.3911235 42.21146347 -16.39162201 41.20417694 -16.39213562 40.16636658 C-16.38979447 38.03545154 -16.38006354 35.90453378 -16.36352539 33.77368164 C-16.33996071 30.51228071 -16.34296086 27.25169864 -16.34960938 23.99023438 C-16.34403168 21.92056804 -16.33692122 19.85090516 -16.328125 17.78125 C-16.32949211 16.31704369 -16.32949211 16.31704369 -16.33088684 14.82325745 C-16.32135483 13.91228806 -16.31182281 13.00131866 -16.30200195 12.06274414 C-16.29739456 11.26349014 -16.29278717 10.46423615 -16.28804016 9.64076233 C-15.8649759 6.05891734 -14.71975425 4.01247551 -11.96655273 1.71069336 C-7.92226959 -0.04656597 -4.36600547 -0.01543619 0 0 Z " fill="#241F41" transform="translate(567.02734375,510.56640625)"/>
<path d="M0 0 C1.20661537 -0.02398109 1.20661537 -0.02398109 2.43760681 -0.04844666 C3.29810135 -0.05380936 4.15859589 -0.05917206 5.04516602 -0.06469727 C6.38394554 -0.07823997 6.38394554 -0.07823997 7.74977112 -0.09205627 C9.63506726 -0.1065458 11.52041353 -0.11544229 13.40576172 -0.11914062 C16.28577431 -0.13104853 19.16365156 -0.18025473 22.04321289 -0.23071289 C23.87718683 -0.24017633 25.7111739 -0.24741174 27.54516602 -0.25219727 C28.83287148 -0.28149574 28.83287148 -0.28149574 30.14659119 -0.31138611 C34.57502464 -0.27805764 36.30472945 -0.1379883 39.88134766 2.71630859 C42.35918938 5.95726814 42.98717697 7.50682733 43.05444336 11.49316406 C43.07050629 12.35778763 43.08656921 13.22241119 43.1031189 14.11323547 C43.14757835 18.06929751 43.18863406 22.02519186 43.21166992 25.98144531 C43.22822975 28.0678218 43.25552004 30.15414155 43.29370117 32.24023438 C43.3484749 35.24826488 43.37034468 38.25496566 43.38500977 41.26342773 C43.40767914 42.19379349 43.43034851 43.12415924 43.45370483 44.0827179 C43.43904167 48.57977679 43.37048074 50.63697773 40.57885742 54.30908203 C35.45202429 58.07751167 31.94455876 58.61470284 25.58813477 58.60717773 C24.38608902 58.61360542 24.38608902 58.61360542 23.15975952 58.62016296 C21.46694888 58.62589701 19.77411361 58.62641334 18.08129883 58.62207031 C15.50241627 58.61891586 12.92468764 58.64236076 10.34594727 58.66772461 C8.69751121 58.66999838 7.04907208 58.67070074 5.40063477 58.66967773 C4.63482086 58.67888748 3.86900696 58.68809723 3.07998657 58.69758606 C-1.69402417 58.656706 -5.06509686 58.05355275 -9.13842773 55.30639648 C-13.0048663 50.95416283 -12.59005763 46.11147121 -12.57202148 40.58764648 C-12.57726334 39.65214966 -12.58250519 38.71665283 -12.58790588 37.75280762 C-12.59431562 35.77930695 -12.59300268 33.80576803 -12.58447266 31.83227539 C-12.57595611 28.81644623 -12.60474913 25.80250775 -12.63647461 22.78686523 C-12.63808663 20.86629288 -12.63750907 18.94571719 -12.63452148 17.02514648 C-12.64575546 16.12606567 -12.65698944 15.22698486 -12.66856384 14.30065918 C-12.62317545 10.21526558 -12.48820002 7.89211523 -10.35742188 4.32397461 C-7.07677123 1.34110554 -4.43773853 0.0670313 0 0 Z " fill="#241E41" transform="translate(562.138427734375,604.693603515625)"/>
<path d="M0 0 C0.84954254 -0.00428513 1.69908508 -0.00857025 2.57437134 -0.01298523 C4.37151194 -0.01872739 6.16867578 -0.01922963 7.96582031 -0.01489258 C10.70939048 -0.01173849 13.45187612 -0.03517206 16.1953125 -0.06054688 C17.94270698 -0.06282054 19.69010434 -0.06352305 21.4375 -0.0625 C22.2553598 -0.07170975 23.0732196 -0.08091949 23.91586304 -0.09040833 C28.56758983 -0.05281548 31.5491 0.33200164 35.3515625 3.30078125 C39.57768988 8.13064111 39.52267697 12.74699137 39.5546875 18.9140625 C39.56038757 19.76123337 39.56608765 20.60840424 39.57196045 21.48124695 C39.58140452 23.27418776 39.58794208 25.06714588 39.59179688 26.86010742 C39.60148913 29.59259633 39.63251212 32.32432863 39.6640625 35.05664062 C39.67059428 36.8007768 39.67584407 38.54491833 39.6796875 40.2890625 C39.6920343 41.10176102 39.7043811 41.91445953 39.71710205 42.75178528 C39.6944469 48.56955896 38.67447392 52.62090786 34.75170898 57.14648438 C30.92614551 58.98630373 27.14123187 58.76857435 22.94921875 58.76953125 C22.03450302 58.77714478 21.11978729 58.7847583 20.17735291 58.79260254 C18.24497199 58.80339618 16.31253277 58.80625963 14.38012695 58.80175781 C11.4275561 58.80078569 8.47758618 58.84240997 5.52539062 58.88671875 C3.64583874 58.89192612 1.76627784 58.89461394 -0.11328125 58.89453125 C-0.99362534 58.91092651 -1.87396942 58.92732178 -2.7809906 58.94421387 C-7.25797509 58.89387425 -9.06647644 58.76353983 -12.68188477 55.88867188 C-15.14833837 52.64293529 -15.77397131 51.09864848 -15.82543945 47.11401367 C-15.83827469 46.24939011 -15.85110992 45.38476654 -15.86433411 44.49394226 C-15.87172104 43.55750381 -15.87910797 42.62106537 -15.88671875 41.65625 C-15.8947905 40.69431229 -15.90286224 39.73237457 -15.91117859 38.74128723 C-15.9250236 36.70278732 -15.93574388 34.66426419 -15.94360352 32.62573242 C-15.96081139 29.51110789 -16.00469327 26.39754607 -16.04882812 23.28320312 C-16.05895541 21.30339323 -16.0674714 19.3235743 -16.07421875 17.34375 C-16.09172684 16.41338425 -16.10923492 15.48301849 -16.12727356 14.52445984 C-16.11318774 10.31599993 -16.04688765 7.95132398 -13.80932617 4.2980957 C-9.28820539 0.11921319 -5.89492168 -0.00653683 0 0 Z " fill="#241F41" transform="translate(566.6484375,415.69921875)"/>
<path d="M0 0 C0.69635933 -0.0055344 1.39271866 -0.01106879 2.11017978 -0.0167709 C4.43733438 -0.03035543 6.76341234 -0.01542144 9.09054565 -0.00050354 C10.76127579 -0.00428747 12.43200279 -0.00978813 14.10272217 -0.01687622 C18.63567426 -0.03083635 23.16824705 -0.01965817 27.70117807 -0.00316501 C32.4430207 0.01068261 37.18484124 0.00422592 41.92669678 0.0007019 C49.8876253 -0.00199992 57.84840301 0.01147479 65.80929565 0.03465271 C75.01900344 0.06128054 84.22845938 0.06300366 93.43819249 0.05126435 C102.29355354 0.04049477 111.1488233 0.04666599 120.00417709 0.06081963 C123.77526883 0.06658473 127.54629389 0.06649269 131.31738663 0.06175423 C135.75468617 0.05699061 140.19170897 0.0670604 144.62895584 0.08870888 C146.25959846 0.09428467 147.89026762 0.0947348 149.52091217 0.08975601 C151.74227837 0.08382289 153.96279272 0.09626896 156.18408203 0.11352539 C157.42846102 0.11595529 158.67284 0.11838518 159.95492744 0.12088871 C162.96505737 0.50120544 162.96505737 0.50120544 164.89277458 1.8027792 C165.96505737 3.50120544 165.96505737 3.50120544 165.90255737 7.06370544 C164.96505737 10.50120544 164.96505737 10.50120544 163.33863163 11.69975567 C160.16363329 12.77181048 157.40357797 12.75637746 154.05036926 12.76190186 C153.35486436 12.7657274 152.65935946 12.76955295 151.94277865 12.77349442 C149.612807 12.78381144 147.28308237 12.77983484 144.95309448 12.77586365 C143.28251416 12.78021076 141.61193583 12.78539391 139.94136047 12.79135132 C135.40432808 12.80475043 130.86737894 12.80531914 126.33033061 12.80278802 C122.5452509 12.80171925 118.76018811 12.80659908 114.97511202 12.81139344 C106.04881469 12.82249108 97.12255944 12.82292412 88.19625854 12.81687927 C78.97920317 12.8108337 69.76230023 12.82316469 60.54527086 12.84444934 C52.63691862 12.86204219 44.728615 12.8680705 36.8202439 12.8648116 C32.09455156 12.86299541 27.36896804 12.86566852 22.64329338 12.87952614 C18.20193222 12.89206281 13.76080961 12.89020009 9.31945229 12.87711525 C7.68718766 12.87474107 6.05490646 12.87751411 4.42266083 12.88573837 C2.19908092 12.89613666 -0.02368816 12.88816211 -2.24723816 12.87542725 C-4.11575487 12.87567886 -4.11575487 12.87567886 -6.02201939 12.87593555 C-9.03494263 12.50120544 -9.03494263 12.50120544 -10.92792416 11.13016033 C-12.03494263 9.50120544 -12.03494263 9.50120544 -12.53494263 7.06370544 C-12.03494263 4.50120544 -12.03494263 4.50120544 -9.94337654 2.37237453 C-6.3492094 0.06003234 -4.25376238 0.00071498 0 0 Z " fill="#211D3C" transform="translate(643.0349426269531,429.49879455566406)"/>
<path d="M0 0 C1.04938268 -0.00701996 1.04938268 -0.00701996 2.11996502 -0.01418173 C4.46387218 -0.0261467 6.80719629 -0.01666904 9.15110779 -0.00723267 C10.83154136 -0.01129768 12.51197225 -0.01663916 14.19239807 -0.02316284 C18.75633322 -0.03684963 23.32006513 -0.03153246 27.88400388 -0.02202559 C32.65655142 -0.0144373 37.42908142 -0.02147217 42.20162964 -0.02618408 C50.21558257 -0.03164353 58.22945259 -0.02444451 66.24339294 -0.01016235 C75.51498796 0.00617009 84.78638512 0.00087211 94.05797535 -0.01564157 C102.01304367 -0.02924441 109.96805235 -0.03118216 117.92312855 -0.02332556 C122.6767574 -0.01864314 127.43029318 -0.0180399 132.18391609 -0.02793503 C136.65155578 -0.03658516 141.11893968 -0.03061872 145.58655167 -0.01325226 C147.2284865 -0.00927717 148.87044278 -0.01043886 150.51236916 -0.01704025 C152.74909904 -0.02520568 154.98500283 -0.01499593 157.22167969 0 C158.47473184 0.00113108 159.72778399 0.00226215 161.01880741 0.00342751 C164.04734802 0.38095093 164.04734802 0.38095093 165.98957729 1.67819786 C167.78789291 4.57304771 166.75351165 7.20321462 166.04734802 10.38095093 C162.93535794 13.49294101 155.16331768 12.51107444 151.01313782 12.52139282 C150.34098209 12.52436394 149.66882635 12.52733507 148.97630227 12.53039622 C146.74329806 12.53900869 144.51034793 12.54058504 142.27732849 12.54208374 C140.66866442 12.5467169 139.06000144 12.55174223 137.45133972 12.55712891 C133.09618591 12.57019982 128.74104747 12.5766865 124.38587713 12.58113956 C121.66393294 12.58407658 118.9419929 12.58818238 116.22005081 12.59264374 C107.7000483 12.60629957 99.18005534 12.61597774 90.66004264 12.61984563 C80.83005433 12.62433331 71.00020458 12.64192206 61.1702584 12.67084622 C53.56500363 12.69244748 45.95978792 12.70254894 38.3545028 12.70388675 C33.8143385 12.70493513 29.2743048 12.71085107 24.73417282 12.72870636 C20.4676021 12.74516197 16.2012606 12.74735486 11.93466949 12.73856735 C10.36935182 12.73779585 8.80402194 12.74215461 7.2387352 12.7520256 C5.10141321 12.76471389 2.96490714 12.75888631 0.82759094 12.7484436 C-0.36810076 12.74991016 -1.56379246 12.75137672 -2.79571724 12.75288773 C-6.293901 12.3407464 -8.19611042 11.55409209 -10.95265198 9.38095093 C-11.51515198 6.38095093 -11.51515198 6.38095093 -10.95265198 3.38095093 C-7.62483644 -0.07800303 -4.64854688 0.00419478 0 0 Z " fill="#211D3D" transform="translate(641.9526519775391,522.6190490722656)"/>
<path d="M0 0 C0.69873403 -0.00326884 1.39746806 -0.00653768 2.11737585 -0.00990558 C4.46441544 -0.01720266 6.81083521 -0.00301406 9.15783691 0.01104736 C10.83812059 0.01025672 12.51840409 0.00816016 14.19868469 0.00485229 C18.76683153 -0.00028952 23.33475376 0.01326928 27.90286446 0.0303793 C32.67807601 0.04539472 37.45328441 0.04424079 42.22851562 0.04504395 C50.24845218 0.04873865 58.26830326 0.06371602 66.28820801 0.08624268 C76.58873316 0.11511592 86.88918945 0.1254656 97.18975067 0.12992477 C106.03639127 0.13390284 114.88301684 0.1464054 123.72964668 0.16027164 C126.57763256 0.16437312 129.4256179 0.1672975 132.27360535 0.17006683 C136.745262 0.17495636 141.21687681 0.18515395 145.6885128 0.19950485 C147.33205983 0.20403165 148.97561249 0.20686742 150.61916542 0.20791245 C152.85788749 0.20965552 155.09650453 0.21753149 157.33520508 0.22705078 C158.58955605 0.23002544 159.84390701 0.23300011 161.13626862 0.23606491 C164.16760254 0.36749268 164.16760254 0.36749268 167.16760254 1.36749268 C168.54885272 4.12999303 168.3583956 6.31480367 168.16760254 9.36749268 C165.41242902 12.1226662 163.81168351 11.64197651 159.94909668 11.68634033 C159.30309415 11.69637179 158.65709162 11.70640326 157.99151325 11.7167387 C155.81193774 11.74795858 153.63249003 11.76477901 151.45275879 11.78155518 C149.88737068 11.80059751 148.32199175 11.82040754 146.75662231 11.84092712 C142.47702435 11.89393617 138.19740132 11.93348006 133.91762924 11.96939468 C131.23641193 11.99243845 128.55523642 12.0182985 125.87405396 12.04507446 C115.37175524 12.1492399 104.86941506 12.23376969 94.3668375 12.3041811 C88.13494971 12.34604617 81.90313148 12.39320424 75.67131329 12.44437027 C64.10102818 12.53897804 52.53088082 12.60785315 40.96029663 12.65258789 C36.88868333 12.66892279 32.81727201 12.69422636 28.74575806 12.72692871 C23.93260453 12.76488122 19.1197672 12.78327392 14.30646896 12.7865696 C12.53000197 12.79099769 10.75353729 12.80227828 8.97716141 12.8208065 C6.54766491 12.8449668 4.11939733 12.84437847 1.68981934 12.83746338 C0.98036195 12.85027658 0.27090456 12.86308979 -0.46005154 12.87629128 C-3.83666585 12.84042138 -5.5597309 12.57613605 -8.27519226 10.49827576 C-9.83239746 8.36749268 -9.83239746 8.36749268 -10.26989746 5.80499268 C-9.20624608 -0.12106503 -5.35635094 -0.00626253 0 0 Z " fill="#211D3D" transform="translate(640.8323974609375,617.6325073242188)"/>
<path d="M0 0 C1.010625 0.0825 2.02125 0.165 3.0625 0.25 C5.27546761 3.56945142 5.32716755 4.67372974 5.38134766 8.54760742 C5.40121735 9.62850143 5.42108704 10.70939545 5.44155884 11.82304382 C5.45311005 12.98874405 5.46466125 14.15444427 5.4765625 15.35546875 C5.49592865 16.54981033 5.5152948 17.74415192 5.5352478 18.97468567 C5.59510616 22.79555076 5.64145454 26.61644587 5.6875 30.4375 C5.72567397 33.02540388 5.76472535 35.61329499 5.8046875 38.20117188 C5.90081291 44.55066791 5.98584218 50.90024072 6.0625 57.25 C7.91761061 57.96124928 7.91761061 57.96124928 10.0625 58.25 C12.24503269 56.45338061 14.05556209 54.71823796 15.96484375 52.66015625 C16.80421227 51.79238808 16.80421227 51.79238808 17.66053772 50.90708923 C20.05845545 48.42728497 22.42603635 45.91922147 24.79663086 43.41333008 C26.52996392 41.58963255 28.27805378 39.78103165 30.02734375 37.97265625 C30.55770737 37.40080093 31.08807098 36.82894562 31.63450623 36.23976135 C33.95358711 33.84517111 35.49586157 32.36224196 38.81469727 31.70483398 C41.0625 32.25 41.0625 32.25 43.0625 35.25 C42.5715477 39.86871149 39.32365058 42.22566129 36.09375 45.23046875 C34.87037097 46.4061494 33.64773792 47.5826067 32.42578125 48.75976562 C30.49831851 50.60068622 28.56549354 52.43470084 26.61865234 54.25512695 C24.73783634 56.0203955 22.8836229 57.81043821 21.03125 59.60546875 C20.4489563 60.137061 19.8666626 60.66865326 19.26672363 61.21635437 C15.41520033 64.99412924 14.3783205 67.7856099 14.23620605 73.18525696 C13.94168934 76.6860062 12.33161789 78.67424455 10.0625 81.25 C5.5815454 84.30519632 1.35864423 85.19271367 -3.9375 84.25 C-8.73515866 81.85117067 -11.502749 79.02585774 -13.9375 74.25 C-14.59043024 69.02655808 -13.782608 65.66482276 -10.9375 61.25 C-6.62171053 57.25 -6.62171053 57.25 -3.9375 57.25 C-3.93972061 56.55064835 -3.94194122 55.85129669 -3.94422913 55.13075256 C-3.9642328 48.55295079 -3.97947452 41.97515746 -3.98931217 35.39733219 C-3.99453975 32.01528187 -4.00163511 28.6332566 -4.01293945 25.2512207 C-4.02584267 21.36670223 -4.03072924 17.48219403 -4.03515625 13.59765625 C-4.04031754 12.37788589 -4.04547882 11.15811554 -4.05079651 9.90138245 C-4.05087204 8.78029587 -4.05094757 7.65920929 -4.05102539 6.50415039 C-4.053246 5.51153702 -4.05546661 4.51892365 -4.05775452 3.49623108 C-3.87456813 0.0744971 -3.47735631 0.29594522 0 0 Z " fill="#C7B3ED" transform="translate(333.9375,462.75)"/>
<path d="M0 0 C1.36071373 -0.01062721 1.36071373 -0.01062721 2.74891663 -0.02146912 C3.7468927 -0.0189917 4.74486877 -0.01651428 5.77308655 -0.01396179 C6.82194534 -0.01907272 7.87080414 -0.02418365 8.95144653 -0.02944946 C12.43249657 -0.04339539 15.91334972 -0.04238493 19.39442444 -0.04008484 C21.80576654 -0.04396902 24.21710796 -0.04830311 26.62844849 -0.05307007 C31.68840246 -0.06054305 36.74828668 -0.06023319 41.8082428 -0.05497742 C48.30309147 -0.04918144 54.7976551 -0.06611192 61.29245663 -0.08932209 C66.27404459 -0.10403039 71.25556344 -0.10493509 76.23716927 -0.10181236 C78.63223905 -0.10232704 81.02731255 -0.10759202 83.42236137 -0.11762428 C86.76732454 -0.12991497 90.11172659 -0.12324109 93.4566803 -0.11161804 C94.45263214 -0.11926178 95.44858398 -0.12690552 96.47471619 -0.13478088 C97.3846785 -0.12776657 98.29464081 -0.12075226 99.23217773 -0.11352539 C100.41877692 -0.113777 100.41877692 -0.113777 101.6293478 -0.1140337 C104.2269493 0.36074139 105.10818337 1.16767623 106.67958069 3.26069641 C107.11708069 6.26069641 107.11708069 6.26069641 106.67958069 9.26069641 C103.91235616 11.89461259 101.98268913 12.63648674 98.2013092 12.64837646 C96.86388168 12.66323341 96.86388168 12.66323341 95.49943542 12.6783905 C94.52892242 12.67388885 93.55840942 12.66938721 92.55848694 12.66474915 C91.53044952 12.6716124 90.50241211 12.67847565 89.44322205 12.68554688 C86.04270139 12.70385871 82.6426401 12.69997135 79.24208069 12.69429016 C76.88083241 12.69884952 74.51958546 12.70415435 72.15834045 12.71017456 C67.20865997 12.71911406 62.25914077 12.71667251 57.3094635 12.70674133 C50.96040244 12.69524494 44.61189699 12.71546973 38.26290894 12.74465847 C33.38677931 12.76298573 28.51078371 12.76273502 23.6346283 12.75702095 C21.29341349 12.75686734 18.95218983 12.76294417 16.61100769 12.77531242 C13.34053964 12.79015626 10.07110955 12.77959359 6.80067444 12.7624054 C5.83016144 12.77207336 4.85964844 12.78174133 3.85972595 12.79170227 C-2.66020478 12.71979046 -2.66020478 12.71979046 -5.96080017 10.4246521 C-7.32041931 8.26069641 -7.32041931 8.26069641 -7.19541931 5.13569641 C-5.83431273 0.66348907 -4.41942347 0.01147417 0 0 Z " fill="#211D3C" transform="translate(638.3204193115234,550.7393035888672)"/>
<path d="M0 0 C0.94914276 -0.00845947 1.89828552 -0.01691895 2.87619019 -0.02563477 C3.91575363 -0.01956207 4.95531708 -0.01348938 6.02638245 -0.00723267 C7.12254883 -0.01248962 8.21871521 -0.01774658 9.34809875 -0.02316284 C12.98131956 -0.0363955 16.61410424 -0.0276123 20.24732971 -0.01748657 C22.76694829 -0.01950651 25.28656629 -0.02241727 27.80618286 -0.02618408 C33.09139603 -0.030612 38.37645217 -0.02444699 43.66163635 -0.01016235 C49.76982633 0.00615616 55.87771577 0.00088232 61.98589844 -0.01564157 C67.86294965 -0.03090331 73.73990758 -0.02927818 79.61697578 -0.02049637 C82.11727503 -0.01849246 84.61758192 -0.02096029 87.11787224 -0.02793503 C90.61102078 -0.03553961 94.10358966 -0.02395805 97.59669495 -0.00723267 C98.63423416 -0.01330536 99.67177338 -0.01937805 100.74075317 -0.02563477 C101.69271576 -0.01717529 102.64467834 -0.00871582 103.62548828 0 C104.45120551 0.00113108 105.27692274 0.00226215 106.12766171 0.00342751 C108.88088936 0.4656795 110.29018529 1.57280836 112.37623596 3.38095093 C112.12062273 5.72407223 111.78352824 8.05938496 111.37623596 10.38095093 C108.97232259 11.58290761 107.46841401 11.51192494 104.78334045 11.52139282 C103.33211037 11.52995804 103.33211037 11.52995804 101.8515625 11.53869629 C100.78656021 11.53981415 99.72155792 11.54093201 98.62428284 11.54208374 C97.50554276 11.54704865 96.38680267 11.55201355 95.23416138 11.55712891 C91.52109674 11.57177447 87.80807478 11.57855562 84.09498596 11.58407593 C81.52430723 11.58982426 78.95362852 11.59558203 76.38294983 11.60134888 C71.67927305 11.61051962 66.97561345 11.61681794 62.27192926 11.61984563 C55.34138152 11.62433096 48.41103055 11.64190137 41.48054266 11.67084622 C35.48336319 11.69502702 29.48627719 11.70278788 23.48904419 11.70452118 C20.93405077 11.70755842 18.3790584 11.71562264 15.82409668 11.72870636 C12.25864018 11.74566505 8.69366898 11.74391176 5.12818909 11.73739624 C4.0631868 11.74661102 2.99818451 11.75582581 1.90090942 11.76531982 C0.44967934 11.75696609 0.44967934 11.75696609 -1.03086853 11.7484436 C-1.87447685 11.74991016 -2.71808517 11.75137672 -3.58725739 11.75288773 C-4.25930458 11.63014858 -4.93135178 11.50740944 -5.62376404 11.38095093 C-7.77878935 8.14841297 -8.09232538 7.12944169 -7.62376404 3.38095093 C-5.34904209 0.36330804 -3.69956053 0.00507001 0 0 Z " fill="#221D3D" transform="translate(638.6237640380859,457.6190490722656)"/>
<path d="M0 0 C0.86789154 -0.00701431 1.73578308 -0.01402863 2.62997437 -0.02125549 C3.57917252 -0.01361176 4.52837067 -0.00596802 5.5063324 0.00190735 C6.50817566 -0.00174332 7.51001892 -0.00539398 8.54222107 -0.00915527 C11.86042626 -0.01727472 15.17814531 -0.00363976 18.49632263 0.01094055 C20.79652913 0.01145895 23.09673608 0.01094204 25.39694214 0.00942993 C30.21976832 0.00951972 35.04242756 0.01996256 39.86521912 0.03804016 C46.0585483 0.06074014 52.25163368 0.06126976 58.44499302 0.05452251 C63.19492779 0.05118723 67.94480659 0.05780409 72.69473076 0.06765175 C74.97897486 0.0715107 77.26322518 0.0726491 79.547472 0.0710659 C82.73440118 0.0706966 85.92101319 0.08327715 89.1078949 0.0995636 C90.05911728 0.09708618 91.01033966 0.09460876 91.99038696 0.09205627 C92.85545868 0.09914108 93.7205304 0.10622589 94.61181641 0.11352539 C95.74254247 0.1166047 95.74254247 0.1166047 96.89611149 0.11974621 C98.74241638 0.3742218 98.74241638 0.3742218 100.74241638 2.3742218 C100.99241638 5.8742218 100.99241638 5.8742218 100.74241638 9.3742218 C98.34575834 11.77087985 97.83272807 11.62612615 94.56712341 11.63491821 C93.69219238 11.64200302 92.81726135 11.64908783 91.91581726 11.65638733 C90.9536731 11.65390991 89.99152893 11.6514325 89.00022888 11.64888 C87.98877808 11.65399094 86.97732727 11.65910187 85.93522644 11.66436768 C82.5792302 11.67831103 79.22343821 11.67730348 75.86741638 11.67500305 C73.54335961 11.67888708 71.21930354 11.68322113 68.89524841 11.68798828 C64.01941122 11.6954605 59.14364643 11.69515174 54.26780701 11.68989563 C48.00602438 11.68409655 41.74453711 11.70103795 35.48280334 11.7242403 C30.68225865 11.73893969 25.88178574 11.73985458 21.08122253 11.73673058 C18.77184972 11.7372456 16.46247306 11.74251697 14.15312195 11.7525425 C10.93008467 11.76481751 7.70763114 11.75816924 4.48460388 11.74653625 C3.52245972 11.75417999 2.56031555 11.76182373 1.5690155 11.7696991 C0.69408447 11.76268478 -0.18084656 11.75567047 -1.08229065 11.7484436 C-1.84478119 11.74861135 -2.60727173 11.74877909 -3.39286804 11.74895191 C-5.25758362 11.3742218 -5.25758362 11.3742218 -7.25758362 8.3742218 C-7.61161252 5.54199058 -7.77118074 4.04329088 -6.00415134 1.74136066 C-3.83291891 0.04181235 -2.73469861 -0.00060823 0 0 Z " fill="#221D3D" transform="translate(638.2575836181641,645.6257781982422)"/>
<path d="M0 0 C2.01822917 0.06510417 4.03645833 0.13020833 6.0546875 0.1953125 C6.16949463 0.75814941 6.28430176 1.32098633 6.40258789 1.90087891 C10.41424203 21.1340854 16.18220329 39.24765041 33.19067383 51.02563477 C43.53390364 57.74123499 53.84231908 60.5696229 65.84375 62.58203125 C69.0546875 63.1953125 69.0546875 63.1953125 70.0546875 64.1953125 C70.1796875 66.6953125 70.1796875 66.6953125 70.0546875 69.1953125 C68.29302787 70.95697213 65.95455074 70.49308918 63.5546875 70.5703125 C46.51779633 70.42053763 30.372463 62.69821978 18.0546875 51.1953125 C5.73765413 38.65401942 -3.55394934 23.01189116 -4.2578125 5.0078125 C-3.90091262 1.79571358 -3.40474616 0.34184198 0 0 Z " fill="#53409D" transform="translate(264.9453125,532.8046875)"/>
<path d="M0 0 C2.475 0.495 2.475 0.495 5 1 C4.51484896 5.35581257 1.6600638 8.04677882 -1.125 11.1875 C-2.12511211 12.33992007 -3.12380615 13.49357228 -4.12109375 14.6484375 C-4.61077637 15.21401367 -5.10045898 15.77958984 -5.60498047 16.36230469 C-8.5358694 19.80304724 -11.27245551 23.39740711 -14 27 C-18.79077645 26.56602203 -20.68161727 24.73375689 -23.8125 21.1875 C-24.60269531 20.31480469 -25.39289062 19.44210937 -26.20703125 18.54296875 C-28 16 -28 16 -28 12 C-22.64847115 12.32433508 -19.71719957 15.49704824 -16 19 C-15.43152344 18.29875 -14.86304688 17.5975 -14.27734375 16.875 C-9.62135266 11.15411613 -4.90740834 5.50702737 0 0 Z " fill="#CBB8ED" transform="translate(590,434)"/>
<path d="M0 0 C0.721875 0.12375 1.44375 0.2475 2.1875 0.375 C1.66795154 4.48448092 0.59756319 6.48041528 -2.26953125 9.44140625 C-2.97013672 10.17423828 -3.67074219 10.90707031 -4.39257812 11.66210938 C-5.12927734 12.41298828 -5.86597656 13.16386719 -6.625 13.9375 C-7.35009766 14.69224609 -8.07519531 15.44699219 -8.82226562 16.22460938 C-10.80768497 18.28632114 -12.8035561 20.33622157 -14.8125 22.375 C-15.50093994 23.11637207 -16.18937988 23.85774414 -16.89868164 24.62158203 C-18.8125 26.375 -18.8125 26.375 -21.2890625 26.36328125 C-24.25933741 25.20000021 -25.93777167 23.81640998 -28.1875 21.5625 C-28.89648438 20.87542969 -29.60546875 20.18835938 -30.3359375 19.48046875 C-31.8125 17.375 -31.8125 17.375 -31.5390625 15.11328125 C-31.29929687 14.53964844 -31.05953125 13.96601562 -30.8125 13.375 C-25.74883104 13.82179432 -23.51739182 16.15759395 -19.8125 19.375 C-17.91479694 17.33504487 -16.01931055 15.29310165 -14.125 13.25 C-13.59455078 12.68023438 -13.06410156 12.11046875 -12.51757812 11.5234375 C-9.93919614 8.73941769 -7.45001229 5.94410866 -5.09375 2.96875 C-2.8125 0.375 -2.8125 0.375 0 0 Z " fill="#473C78" transform="translate(592.8125,529.625)"/>
<path d="M0 0 C3 0.25 3 0.25 5 2.25 C5.25 5.25 5.25 5.25 5 8.25 C3 10.25 3 10.25 0.5625 10.5625 C-2 10.25 -2 10.25 -3.8125 9.0625 C-5.40199375 6.6364306 -5.36487512 5.09602594 -5 2.25 C-3 0.25 -3 0.25 0 0 Z " fill="#1F1E2C" transform="translate(334,527.75)"/>
<path d="M0 0 C0.33 0 0.66 0 1 0 C1.2545727 3.93629132 1.47429232 7.87376868 1.6875 11.8125 C1.76033203 12.93205078 1.83316406 14.05160156 1.90820312 15.20507812 C1.96298828 16.27822266 2.01777344 17.35136719 2.07421875 18.45703125 C2.13182373 19.44678955 2.18942871 20.43654785 2.2487793 21.45629883 C2 24 2 24 -1 27 C-0.67 18.09 -0.34 9.18 0 0 Z " fill="#221E3E" transform="translate(343,362)"/>
<path d="M0 0 C1.9375 0.3125 1.9375 0.3125 4 1 C4.33 1.99 4.66 2.98 5 4 C4.34 4.66 3.68 5.32 3 6 C1.5 4.6875 1.5 4.6875 0 3 C0 2.01 0 1.02 0 0 Z " fill="#D4C1F7" transform="translate(563,446)"/>
</svg>
